<svg width="20" height="22" viewBox="0 0 20 22" fill="none" xmlns="http://www.w3.org/2000/svg">
<path d="M16.6 1.10205C17.7 1.10205 18.6 2.00205 18.6 3.10205V5.30205C18.6 6.10205 18.1 7.10205 17.6 7.60205L13.3 11.4021C12.7 11.9021 12.3 12.9021 12.3 13.7021V18.0021C12.3 18.6021 11.9 19.4021 11.4 19.7021L10 20.6021C8.70002 21.4021 6.90002 20.5021 6.90002 18.9021V13.6021C6.90002 12.9021 6.50002 12.0021 6.10002 11.5021L2.30002 7.50205C1.80002 7.00205 1.40002 6.10205 1.40002 5.50205V3.20205C1.40002 2.00205 2.30002 1.10205 3.40002 1.10205H12.4M8.93002 1.10205L4.00002 9.00205" stroke="#666666" stroke-width="1.5" stroke-miterlimit="10" stroke-linecap="round" stroke-linejoin="round"/>
</svg>
